#!OML:ASF X:\für Bonn\!DataBase\2005_08_11_Bastian_Final\c3d\Bastian.ASF
:FULLY-SPECIFIED
:DEGREES
699
root -0.265093 1.11512 26.1208 -994.9 -2.05091 -900.579
lowerback 3.47229 -2.80451 -0.954406
upperback 7.62488 -4.24124 -0.313851
thorax 6.01609 -2.40025 0.100977
lowerneck -29.4787 2.03148 9.49187
upperneck 12.2367 -0.479318 -1.86487
head 8.48399 0.12183 -2.19985
rclavicle 2.70347e-014 -1.98785e-014
rhumerus -89.5469 67.6359 -141.592
rradius 29.8714
rwrist -18.2945
rhand -15.4633 -2.55381
rfingers 7.12502
rthumb 10.7179 -32.2604
lclavicle 2.70347e-014 -1.98785e-014
lhumerus -218.294 -141.837 268.047
lradius 13.4336
lwrist 22.9712
lhand -9.42629 -6.34329
lfingers 7.12502
lthumb 16.5361 22.9721
rfemur -6.00666 3.02953 21.8005
rtibia 32.124
rfoot -9.68267 -24.0655
rtoes -10.5719
lfemur 0.735929 2.14114 -17.5278
ltibia 18.9393
lfoot -6.64544 14.7991
ltoes 9.08277
700
root -0.263903 1.11532 26.121 -994.889 -2.05339 -900.589
lowerback 3.46369 -2.79749 -0.969926
upperback 7.60815 -4.23019 -0.303478
thorax 6.00486 -2.39486 0.120795
lowerneck -29.3639 2.03668 9.44373
upperneck 12.1563 -0.446964 -1.82574
head 8.44057 0.136674 -2.17284
rclavicle 4.29375e-014 -4.77083e-015
rhumerus -89.5342 67.6051 -141.554
rradius 29.866
rwrist -18.2739
rhand -15.4615 -2.54826
rfingers 7.12502
rthumb 10.7196 -32.2548
lclavicle 4.29375e-014 -4.77083e-015
lhumerus -218.272 -141.878 268.059
lradius 13.3487
lwrist 22.9011
lhand -9.45128 -6.39496
lfingers 7.12502
lthumb 16.512 22.9224
rfemur -6.01731 3.09245 21.8066
rtibia 32.1303
rfoot -9.74251 -24.1125
rtoes -10.4606
lfemur 0.73655 2.09302 -17.5356
ltibia 18.9256
lfoot -6.68257 14.846
ltoes 9.13227
701
root -0.26357 1.11472 26.1213 -994.879 -2.07433 -900.569
lowerback 3.46068 -2.80348 -0.996557
upperback 7.60348 -4.23703 -0.307468
thorax 6.00332 -2.39921 0.131282
lowerneck -29.3177 2.06626 9.44423
upperneck 12.1366 -0.402492 -1.82843
head 8.42928 0.156202 -2.16702
rclavicle 6.36111e-015 -2.70347e-014
rhumerus -89.4568 67.6017 -141.476
rradius 29.8543
rwrist -18.2148
rhand -15.4357 -2.54789
rfingers 7.12502
rthumb 10.7445 -32.2531
lclavicle 6.36111e-015 -2.70347e-014
lhumerus -218.212 -141.961 268.007
lradius 13.2834
lwrist 22.7896
lhand -9.44724 -6.44379
lfingers 7.12502
lthumb 16.5159 22.8733
rfemur -6.03192 3.0942 21.7853
rtibia 32.1372
rfoot -9.75628 -24.1433
rtoes -10.4987
lfemur 0.719283 2.10195 -17.5559
ltibia 18.9114
lfoot -6.63581 14.8416
ltoes 9.02149
702
root -0.263574 1.11398 26.1207 -994.878 -2.07325 -900.58
lowerback 3.47068 -2.79967 -1.01131
upperback 7.60099 -4.23398 -0.281491
thorax 5.99807 -2.39973 0.167059
lowerneck -29.2764 2.06577 9.35988
upperneck 12.1078 -0.371602 -1.8004
head 8.41491 0.168392 -2.13925
rclavicle 5.40694e-014 -3.97569e-015
rhumerus -89.5148 67.6222 -141.485
rradius 29.8618
rwrist -18.2206
rhand -15.4284 -2.54304
rfingers 7.12502
rthumb 10.7516 -32.2479
lclavicle 5.40694e-014 -3.97569e-015
lhumerus -218.181 -142.011 268.04
lradius 13.2205
lwrist 22.7376
lhand -9.47617 -6.49002
lfingers 7.12502
lthumb 16.488 22.8294
rfemur -6.04084 3.10349 21.7877
rtibia 32.1438
rfoot -9.74334 -24.1413
rtoes -10.5425
lfemur 0.722981 2.09855 -17.5559
ltibia 18.8991
lfoot -6.65355 14.8503
ltoes 9.013
703
root -0.263752 1.11382 26.1211 -994.855 -2.07557 -900.578
lowerback 3.44856 -2.80137 -1.01031
upperback 7.59436 -4.23473 -0.281916
thorax 6.00347 -2.3993 0.16498
lowerneck -29.2167 2.08583 9.3432
upperneck 12.0649 -0.335049 -1.78001
head 8.39305 0.185728 -2.12361
rclavicle 2.06736e-014 1.47101e-014
rhumerus -89.5276 67.6218 -141.499
rradius 29.8689
rwrist -18.2321
rhand -15.4327 -2.56587
rfingers 7.12502
rthumb 10.7474 -32.2709
lclavicle 2.06736e-014 1.47101e-014
lhumerus -218.148 -142.047 268.016
lradius 13.1698
lwrist 22.7153
lhand -9.48489 -6.51059
lfingers 7.12502
lthumb 16.4796 22.8095
rfemur -6.06892 3.12243 21.7801
rtibia 32.1527
rfoot -9.78799 -24.157
rtoes -10.4449
lfemur 0.703742 2.09963 -17.5607
ltibia 18.8849
lfoot -6.64404 14.8555
ltoes 9.01073
704
root -0.263227 1.114 26.1212 -994.855 -2.07697 -900.579
lowerback 3.44948 -2.79224 -1.00773
upperback 7.60173 -4.22316 -0.28274
thorax 6.01039 -2.39374 0.162637
lowerneck -29.2091 2.08484 9.30897
upperneck 12.0542 -0.326414 -1.75729
head 8.38878 0.190412 -2.10895
rclavicle -3.02153e-014 -9.93923e-015
rhumerus -89.3763 67.5983 -141.343
rradius 29.8502
rwrist -18.1653
rhand -15.4462 -2.52115
rfingers 7.12502
rthumb 10.7344 -32.2269
lclavicle -3.02153e-014 -9.93923e-015
lhumerus -218.08 -142.028 268.017
lradius 13.0534
lwrist 22.6865
lhand -9.49773 -6.60928
lfingers 7.12502
lthumb 16.4673 22.7118
rfemur -6.07051 3.13142 21.7815
rtibia 32.1563
rfoot -9.79436 -24.1647
rtoes -10.5424
lfemur 0.703132 2.14388 -17.5585
ltibia 18.8806
lfoot -6.58763 14.8348
ltoes 8.79054
705
root -0.262937 1.11361 26.1212 -994.856 -2.09827 -900.568
lowerback 3.4644 -2.79299 -1.03198
upperback 7.59785 -4.22346 -0.289326
thorax 5.999 -2.39486 0.170369
lowerneck -29.1765 2.10611 9.31852
upperneck 12.0441 -0.296464 -1.76874
head 8.38196 0.202941 -2.10991
rclavicle -5.24792e-014 -5.96354e-015
rhumerus -89.3213 67.585 -141.3
rradius 29.8387
rwrist -18.1495
rhand -15.4529 -2.52675
rfingers 7.12502
rthumb 10.7279 -32.2328
lclavicle -5.24792e-014 -5.96354e-015
lhumerus -218.063 -142.034 268.016
lradius 13.0058
lwrist 22.6746
lhand -9.50559 -6.63769
lfingers 7.12502
lthumb 16.4597 22.6841
rfemur -6.07873 3.06206 21.7479
rtibia 32.1645
rfoot -9.78458 -24.1317
rtoes -10.4211
lfemur 0.708526 2.08561 -17.5906
ltibia 18.8695
lfoot -6.61274 14.8624
ltoes 8.94134
